<svg width="103" height="52" viewBox="0 0 103 52" fill="none" xmlns="http://www.w3.org/2000/svg">
<path d="M25.0052 14C24.8063 14 24.6155 14.079 24.4749 14.2197C24.3343 14.3603 24.2552 14.5511 24.2552 14.75C24.2552 14.9489 24.3343 15.1397 24.4749 15.2804C24.6155 15.421 24.8063 15.5 25.0052 15.5C25.5995 15.5005 26.1789 15.3137 26.6611 14.9663C27.1432 14.6188 27.5037 14.1282 27.6912 13.5642L27.6933 13.5576L28.0052 13.7135V15.2023C27.036 16.2769 26.5013 17.6738 26.5052 19.121V23.75C26.5052 23.9489 26.5843 24.1397 26.7249 24.2804C26.8655 24.421 27.0563 24.5 27.2552 24.5H33.2552C33.4541 24.5 33.6449 24.421 33.7856 24.2804C33.9262 24.1397 34.0052 23.9489 34.0052 23.75V22.1135L37.7552 23.5198V26C37.7552 26.1989 37.8343 26.3897 37.9749 26.5304C38.1155 26.671 38.3063 26.75 38.5052 26.75H38.5346L39.2364 44.2959L36.6698 45.5792C36.5452 45.6415 36.4404 45.7373 36.3672 45.8557C36.294 45.9742 36.2552 46.1107 36.2552 46.25V47.75C36.2552 47.9489 36.3343 48.1397 36.4749 48.2804C36.6155 48.421 36.8063 48.5 37.0052 48.5H43.7552C43.9497 48.5001 44.1367 48.4246 44.2766 48.2895C44.4166 48.1544 44.4985 47.9703 44.5052 47.7759L45.2297 26.75H45.2552C45.4541 26.75 45.6449 26.671 45.7856 26.5304C45.9262 26.3897 46.0052 26.1989 46.0052 26V14.75C46.0052 14.6546 45.987 14.5601 45.9515 14.4715L44.6726 11.2739C44.9848 10.8505 45.1794 10.352 45.2368 9.82907L45.7618 9.30454C46.0995 8.96667 46.3343 8.53981 46.4388 8.07367C46.5434 7.60753 46.5134 7.12128 46.3523 6.67153C46.1913 6.22178 45.9058 5.82702 45.5291 5.5332C45.1524 5.23939 44.7001 5.05861 44.2247 5.01192L44.1885 4.93954C43.9261 4.41488 43.4942 3.99416 42.963 3.74555C42.4316 3.49694 41.832 3.43501 41.261 3.56979C40.6901 3.70456 40.1814 4.02814 39.8174 4.48812C39.4533 4.94808 39.2552 5.5175 39.2552 6.1041V9.50001C39.2551 9.90177 39.3359 10.2994 39.4928 10.6693C39.6498 11.0391 39.8796 11.3736 40.1687 11.6526L39.4917 12.6688L38.1664 13.3317C38.1383 13.346 35.2478 16.1972 35.2478 16.1972L32.9864 15.8204C32.8398 15.6044 32.6792 15.3985 32.5052 15.2039V13.8356L34.9371 13.2276C35.0373 13.2026 35.1314 13.157 35.2131 13.0939C35.295 13.0308 35.3629 12.9515 35.4126 12.8609C35.4624 12.7703 35.4929 12.6704 35.5022 12.5675C35.5114 12.4646 35.4993 12.3609 35.4667 12.2628L34.7167 10.0128C34.6669 9.8635 34.5714 9.73362 34.4437 9.64158C34.316 9.54955 34.1627 9.50002 34.0052 9.50001H25.0052C24.8063 9.50001 24.6155 9.57902 24.4749 9.71968C24.3343 9.86033 24.2552 10.0511 24.2552 10.25V12.5C24.2552 12.6989 24.3343 12.8897 24.4749 13.0304C24.6155 13.171 24.8063 13.25 25.0052 13.25H26.2019C26.093 13.4748 25.9231 13.6645 25.7114 13.7971C25.4998 13.9298 25.255 14.0001 25.0052 14ZM32.5052 23H28.0052V19.1213C28.0022 18.0653 28.3844 17.0444 29.0802 16.25H31.4297C31.8104 16.6888 32.1003 17.1986 32.2829 17.75H31.0051C30.8061 17.75 30.6153 17.829 30.4747 17.9697C30.3341 18.1103 30.2551 18.3011 30.2551 18.5V20.75C30.2551 20.9489 30.3341 21.1397 30.4747 21.2804C30.6153 21.421 30.8061 21.5 31.0051 21.5H32.369L32.5051 21.551L32.5052 23ZM29.5052 14.75V14H31.0052V14.75H29.5052ZM43.0307 47H37.7552V46.7135L40.1822 45.5H43.0823L43.0307 47ZM43.1338 44H40.7258L40.0358 26.75H43.7289L43.1338 44ZM44.505 25.25H39.255V23.75H41.505C41.6489 23.75 41.7899 23.7086 41.9109 23.6306C42.0319 23.5527 42.128 23.4415 42.1877 23.3104L44.505 18.2125V25.25ZM40.755 6.1041C40.7549 5.85537 40.8389 5.61392 40.9933 5.41887C41.1476 5.22383 41.3633 5.08662 41.6054 5.02947C41.8474 4.97232 42.1017 4.99858 42.327 5.10401C42.5522 5.20944 42.7353 5.38784 42.8466 5.61032L43.0841 6.08545C43.1463 6.21007 43.2422 6.31487 43.3608 6.3881C43.4792 6.46132 43.6158 6.50007 43.7552 6.50001H43.9784C44.1802 6.50028 44.3776 6.56037 44.5454 6.67267C44.7131 6.78497 44.8439 6.94447 44.9211 7.13101C44.9984 7.31757 45.0185 7.52281 44.9792 7.72086C44.94 7.9189 44.8428 8.10086 44.7002 8.24376L44.5048 8.43932L42.7855 6.71967C42.6449 6.57904 42.4541 6.50003 42.2552 6.50001H40.7552L40.755 6.1041ZM40.755 8.00001H41.9443L43.7273 9.78304C43.6558 10.1484 43.4509 10.4742 43.1525 10.6969C42.8542 10.9197 42.4836 11.0235 42.113 10.9882C41.7423 10.9529 41.3981 10.781 41.1471 10.5059C40.8962 10.2309 40.7565 9.87234 40.7552 9.50001L40.755 8.00001ZM39.255 14.4635L40.3403 13.9208C40.457 13.8625 40.5565 13.7746 40.629 13.6661L41.4753 12.3966C42.1302 12.5734 42.8257 12.5224 43.4479 12.2519L44.3777 14.5762C43.9589 14.2043 43.4179 13.9992 42.8579 14H42.5232C42.0742 13.9996 41.635 14.1313 41.2602 14.3784C40.8854 14.6255 40.5915 14.9774 40.4149 15.3901L39.8106 16.8002L39.2552 18.0961L39.255 14.4635ZM43.6526 16.2646L41.6498 16.3159L41.7933 15.981C41.8544 15.8382 41.9562 15.7164 42.0859 15.6309C42.2157 15.5453 42.3677 15.4998 42.5232 15.5H42.8579C42.9909 15.4988 43.1221 15.5315 43.2388 15.5953C43.3556 15.6589 43.4542 15.7514 43.5252 15.8639C43.6032 15.9835 43.6473 16.1219 43.6529 16.2646H43.6526ZM35.3816 17.7398C35.4993 17.7594 35.6201 17.7507 35.7337 17.7142C35.8474 17.6778 35.9507 17.6147 36.0352 17.5304L37.755 15.8106V18.8519L33.8718 17.8813C33.8418 17.7433 33.8074 17.6063 33.7677 17.471L35.3816 17.7398ZM33.1406 19.25C33.1514 19.2511 33.1622 19.252 33.1731 19.2526L39.0731 20.7276C39.246 20.7708 39.4286 20.751 39.5882 20.6719C39.7479 20.5927 39.8742 20.4592 39.9444 20.2954L41.1551 17.8291L43.0537 17.7805L41.0222 22.25H38.641L32.7684 20.0477C32.6841 20.0161 32.595 20 32.5051 20H31.7551V19.25H33.1406ZM28.0052 11H33.4647L33.7876 11.9688L31.6629 12.5H28.9322L28.0052 12.0365V11ZM25.7552 11.75V11H26.5052V11.75H25.7552Z" fill="#F1ACEE"/>
<path d="M1.95458 29.6893L2.79055 30.0476C5.49301 31.2093 7.879 32.9997 9.75 35.2695V36.5H4.49998C4.30107 36.5 4.11031 36.579 3.96966 36.7197C3.82901 36.8604 3.74998 37.0511 3.74998 37.25V40.25C3.74998 40.4489 3.82901 40.6397 3.96966 40.7803C4.11031 40.921 4.30107 41 4.49998 41H4.57123L5.25373 47.825C5.27233 48.01 5.35898 48.1815 5.49686 48.3062C5.63475 48.4309 5.81406 48.5 5.99998 48.5H15C15.1859 48.5 15.3653 48.4309 15.5031 48.3062C15.641 48.1815 15.7276 48.01 15.7463 47.825L16.4288 41H16.5C16.6989 41 16.8896 40.921 17.0303 40.7803C17.171 40.6397 17.25 40.4489 17.25 40.25V37.25C17.25 37.0511 17.171 36.8604 17.0303 36.7197C16.8896 36.579 16.6989 36.5 16.5 36.5H11.25V33.3986C13.121 31.1287 15.507 29.3384 18.2094 28.1767L19.0454 27.8184C19.1498 27.7737 19.2427 27.7058 19.3169 27.6199C19.3913 27.5341 19.4452 27.4325 19.4745 27.3227C19.5038 27.213 19.5079 27.0981 19.4863 26.9866C19.4648 26.8752 19.4181 26.77 19.35 26.6791L18.7817 25.9213C18.2156 25.1684 17.3741 24.6708 16.4416 24.5376C15.5092 24.4044 14.562 24.6464 13.8078 25.2107L13.2371 25.6387C12.5086 25.6921 11.8145 25.9694 11.2496 26.4326V25.4388C13.1183 23.1725 15.5108 21.3953 18.2203 20.2608L18.2888 20.2327C18.3835 20.193 18.4692 20.1343 18.5405 20.0603C18.6116 19.9861 18.6668 19.8982 18.7027 19.8018C18.7385 19.7054 18.754 19.6028 18.7485 19.5001C18.743 19.3976 18.7163 19.2972 18.6704 19.2052L18.5503 18.9649C18.3288 18.5219 18.0171 18.1302 17.6353 17.8149C17.2535 17.4994 16.8099 17.2674 16.3331 17.1334C15.8563 16.9995 15.3568 16.9668 14.8667 17.0373C14.3765 17.1078 13.9064 17.2799 13.4867 17.5428L13.2727 17.6769C12.5317 17.7237 11.8242 18.002 11.25 18.4726V18.1083C12.7157 16.3157 14.5992 14.9106 16.7351 14.0163L16.7892 13.9937C16.9082 13.944 17.0123 13.8644 17.0917 13.7627C17.1709 13.661 17.2226 13.5405 17.2418 13.4129C17.2609 13.2854 17.2468 13.1551 17.2009 13.0346C17.1549 12.9141 17.0787 12.8075 16.9795 12.725L16.1489 12.0344C15.7619 11.7103 15.298 11.4911 14.802 11.3978C14.3059 11.3044 13.7941 11.3402 13.3158 11.5015L12.8138 11.6688C12.348 11.6888 11.8936 11.8185 11.4875 12.0475C11.0814 12.2764 10.7351 12.5981 10.477 12.9862L10.0688 13.5987C9.42985 12.9284 8.55399 12.5349 7.62861 12.5023L6.96645 12.2816C6.3933 12.0883 5.78013 12.0457 5.18572 12.1575C4.59131 12.2694 4.0356 12.532 3.57186 12.9203L2.52083 13.7942C2.42166 13.8767 2.34544 13.9833 2.29951 14.1039C2.25358 14.2243 2.23951 14.3547 2.25866 14.4822C2.2778 14.6097 2.3295 14.7302 2.40878 14.8319C2.48806 14.9337 2.59224 15.0132 2.71123 15.0629L2.77986 15.0916C5.48914 16.2262 7.88142 18.0034 9.75 20.2696V21.1823C9.17573 20.7115 8.46806 20.433 7.72695 20.3862L7.51292 20.2522C7.09319 19.9893 6.62315 19.8172 6.13295 19.7467C5.64276 19.6762 5.14324 19.7089 4.66645 19.8428C4.18965 19.9767 3.74612 20.2088 3.36431 20.5243C2.98249 20.8396 2.67082 21.2313 2.4493 21.6743L2.3292 21.9146C2.28323 22.0065 2.25664 22.1069 2.25109 22.2095C2.24554 22.3122 2.26114 22.4148 2.29692 22.5112C2.33272 22.6076 2.38793 22.6955 2.45913 22.7697C2.53034 22.8437 2.61602 22.9024 2.71086 22.9421L2.77948 22.9708C5.48892 24.1052 7.88135 25.8823 9.75 28.1487V28.3034C9.1852 27.8402 8.491 27.5628 7.76248 27.5094L7.19183 27.0814C6.43799 26.5162 5.4905 26.2735 4.55774 26.4067C3.62498 26.5399 2.78334 27.0382 2.21792 27.7919L1.64998 28.55C1.58185 28.6408 1.53523 28.746 1.51366 28.8575C1.49208 28.9691 1.49611 29.084 1.52545 29.1937C1.55478 29.3034 1.60865 29.405 1.68298 29.4909C1.75733 29.5767 1.85019 29.6446 1.95458 29.6893ZM11.3232 14.421L11.7251 13.8183C11.8587 13.6175 12.0399 13.4529 12.2526 13.3391C12.4652 13.2252 12.7027 13.1658 12.9439 13.166C13.0245 13.166 13.1046 13.153 13.1811 13.1275L13.7904 12.9244C14.009 12.8507 14.2418 12.83 14.4699 12.864C14.698 12.8981 14.9148 12.9858 15.1023 13.1201C13.7159 13.8258 12.4423 14.7342 11.3235 15.8151L11.3232 14.421ZM11.25 20.8964L11.7921 20.0835C11.9792 19.8021 12.2331 19.5713 12.5311 19.4118C12.8291 19.2522 13.1619 19.169 13.5 19.1694C13.6408 19.1694 13.7788 19.1297 13.8982 19.055L14.2833 18.8138C14.6965 18.5555 15.1881 18.4523 15.6703 18.5226C16.1526 18.5929 16.5941 18.8322 16.9164 19.1977C14.805 20.184 12.8862 21.5387 11.25 23.1981V20.8964ZM11.25 28.8558L11.792 28.0427C11.9792 27.7614 12.2332 27.5307 12.5312 27.3713C12.8292 27.2119 13.162 27.1287 13.5 27.129C13.6623 27.129 13.8202 27.0764 13.95 26.979L14.7078 26.4107C15.1426 26.0854 15.6884 25.9453 16.2262 26.0212C16.7638 26.0971 17.2496 26.3827 17.5775 26.8156C15.2078 27.84 13.0591 29.3137 11.25 31.1552V28.8558ZM14.3213 47H6.67873L6.07873 41H14.9213L14.3213 47ZM4.40211 14.1805L4.53055 14.0737C4.79854 13.8493 5.11966 13.6976 5.46315 13.633C5.80663 13.5683 6.16096 13.5929 6.49217 13.7046L7.2628 13.9615C7.33928 13.987 7.41937 14 7.49998 14C7.838 13.9996 8.17084 14.083 8.46886 14.2424C8.76687 14.4019 9.02081 14.6326 9.20801 14.9141L9.75 15.7271V18.0287C8.19697 16.4537 6.38887 15.1527 4.40211 14.1805ZM4.08336 21.9073C4.40563 21.5418 4.84724 21.3025 5.32949 21.2323C5.81173 21.1619 6.30328 21.2651 6.71651 21.5234L7.10164 21.7647C7.22105 21.8395 7.3591 21.8791 7.49998 21.879C7.838 21.8787 8.17084 21.962 8.46886 22.1215C8.76687 22.2809 9.02081 22.5117 9.20801 22.7931L9.75 23.6062V25.9078C8.11374 24.2484 6.19495 22.8937 4.08355 21.9073H4.08336ZM15.75 38V39.5H5.24998V38H15.75ZM4.77026 27.8918C5.03713 27.8529 5.30906 27.8673 5.57031 27.9342C5.83155 28.0012 6.07692 28.1193 6.2922 28.2817L7.04998 28.85C7.17981 28.9474 7.33771 29 7.49998 29C7.838 28.9996 8.17084 29.083 8.46886 29.2424C8.76687 29.4019 9.02081 29.6326 9.20801 29.9141L9.75 30.7271V33.0261C7.94083 31.1846 5.7921 29.7109 3.42251 28.6866C3.58378 28.4719 3.78585 28.2912 4.01713 28.1548C4.24841 28.0184 4.50435 27.929 4.77026 27.8918Z" fill="#F1ACEE"/>
<path d="M22.7553 10.25H21.2553C21.0564 10.25 20.8656 10.329 20.725 10.4697C20.5843 10.6103 20.5053 10.8011 20.5053 11C20.5053 11.1989 20.5843 11.3897 20.725 11.5303C20.8656 11.671 21.0564 11.75 21.2553 11.75H22.7553C22.9542 11.75 23.1449 11.671 23.2857 11.5303C23.4263 11.3897 23.5053 11.1989 23.5053 11C23.5053 10.8011 23.4263 10.6103 23.2857 10.4697C23.1449 10.329 22.9542 10.25 22.7553 10.25Z" fill="#F1ACEE"/>
<path d="M17.5053 11.75H19.0053C19.2042 11.75 19.3949 11.671 19.5357 11.5303C19.6763 11.3897 19.7553 11.1989 19.7553 11C19.7553 10.8011 19.6763 10.6103 19.5357 10.4697C19.3949 10.329 19.2042 10.25 19.0053 10.25H17.5053C17.3064 10.25 17.1156 10.329 16.975 10.4697C16.8343 10.6103 16.7553 10.8011 16.7553 11C16.7553 11.1989 16.8343 11.3897 16.975 11.5303C17.1156 11.671 17.3064 11.75 17.5053 11.75Z" fill="#F1ACEE"/>
<path d="M21.0181 8.9615L22.5181 9.46147C22.6119 9.49394 22.7111 9.50749 22.8101 9.50132C22.9092 9.49514 23.006 9.46939 23.095 9.42552C23.184 9.38167 23.2634 9.32058 23.3287 9.24581C23.3939 9.17104 23.4437 9.08406 23.475 8.98992C23.5064 8.89579 23.5188 8.79636 23.5115 8.69741C23.5042 8.59845 23.4773 8.50193 23.4324 8.41344C23.3875 8.32495 23.3255 8.24624 23.2499 8.18189C23.1744 8.11753 23.0869 8.06881 22.9924 8.03853L21.4924 7.53847C21.304 7.47654 21.0986 7.49178 20.9214 7.58087C20.7441 7.66996 20.6094 7.82564 20.5466 8.01384C20.4839 8.20203 20.4984 8.4074 20.5867 8.58501C20.6751 8.76262 20.8301 8.89799 21.0181 8.9615Z" fill="#F1ACEE"/>
<path d="M18.0181 7.96149L18.7681 8.21153C18.8617 8.24314 18.9605 8.25597 19.059 8.24927C19.1576 8.24258 19.2538 8.21648 19.3422 8.17251C19.4306 8.12852 19.5095 8.06751 19.5743 7.99297C19.6391 7.91843 19.6886 7.83183 19.7198 7.73814C19.751 7.64445 19.7634 7.54552 19.7562 7.44702C19.7491 7.34852 19.7227 7.2524 19.6783 7.16416C19.634 7.07592 19.5726 6.99732 19.4978 6.93285C19.423 6.86838 19.3362 6.81933 19.2424 6.78849L18.4924 6.53856C18.3986 6.50608 18.2994 6.49254 18.2003 6.4987C18.1013 6.50488 18.0044 6.53064 17.9155 6.5745C17.8264 6.61836 17.747 6.67944 17.6817 6.75422C17.6166 6.82899 17.5668 6.91597 17.5354 7.0101C17.5041 7.10424 17.4916 7.20367 17.499 7.30262C17.5063 7.40157 17.5332 7.4981 17.5781 7.58659C17.623 7.67508 17.685 7.75378 17.7605 7.81813C17.8361 7.88249 17.9236 7.93121 18.0181 7.96149Z" fill="#F1ACEE"/>
<path d="M21.2552 14.5002C21.3358 14.5002 21.4159 14.4871 21.4924 14.4616L22.9924 13.9615C23.0869 13.9312 23.1744 13.8825 23.2499 13.8181C23.3255 13.7537 23.3875 13.6751 23.4324 13.5866C23.4773 13.4981 23.5042 13.4016 23.5115 13.3026C23.5188 13.2036 23.5064 13.1042 23.475 13.0101C23.4436 12.916 23.3939 12.829 23.3287 12.7542C23.2634 12.6795 23.184 12.6183 23.0951 12.5745C23.006 12.5307 22.9091 12.5049 22.8101 12.4987C22.7111 12.4925 22.6119 12.5061 22.5181 12.5386L21.0181 13.0385C20.849 13.0948 20.7056 13.2093 20.6132 13.3618C20.521 13.5141 20.486 13.6944 20.5145 13.8703C20.543 14.0461 20.6332 14.2061 20.7689 14.3215C20.9047 14.4369 21.077 14.5003 21.2552 14.5002Z" fill="#F1ACEE"/>
<path d="M18.7681 13.7885L18.0181 14.0385C17.9236 14.0688 17.8361 14.1176 17.7605 14.1819C17.685 14.2463 17.623 14.325 17.5781 14.4135C17.5332 14.502 17.5063 14.5984 17.499 14.6974C17.4916 14.7964 17.5041 14.8958 17.5354 14.9899C17.5668 15.084 17.6166 15.171 17.6817 15.2459C17.747 15.3206 17.8264 15.3817 17.9155 15.4256C18.0044 15.4694 18.1013 15.4951 18.2003 15.5013C18.2994 15.5075 18.3986 15.4939 18.4924 15.4615L19.2424 15.2115C19.3362 15.1807 19.423 15.1317 19.4978 15.0672C19.5726 15.0028 19.634 14.9241 19.6783 14.8359C19.7227 14.7477 19.7491 14.6515 19.7562 14.553C19.7634 14.4545 19.751 14.3556 19.7198 14.2619C19.6886 14.1682 19.6391 14.0816 19.5743 14.007C19.5095 13.9325 19.4306 13.8715 19.3422 13.8275C19.2538 13.7835 19.1576 13.7575 19.059 13.7507C18.9605 13.7441 18.8617 13.7569 18.7681 13.7885Z" fill="#F1ACEE"/>
<rect x="0.5" y="2.5" width="47" height="47" rx="7.5" stroke="#F1ACEE"/>
<path d="M64.688 11.112C64.688 12.04 64.368 12.8133 63.728 13.432C63.0987 14.04 62.1333 14.344 60.832 14.344H58.688V19H57.232V7.848H60.832C62.0907 7.848 63.0453 8.152 63.696 8.76C64.3573 9.368 64.688 10.152 64.688 11.112ZM60.832 13.144C61.6427 13.144 62.24 12.968 62.624 12.616C63.008 12.264 63.2 11.7627 63.2 11.112C63.2 9.736 62.4107 9.048 60.832 9.048H58.688V13.144H60.832ZM67.9536 17.816H71.8576V19H66.4976V7.848H67.9536V17.816ZM79.9959 16.52H75.1319L74.2359 19H72.6999L76.7319 7.912H78.4119L82.4279 19H80.8919L79.9959 16.52ZM79.5799 15.336L77.5639 9.704L75.5479 15.336H79.5799ZM92.9531 19H91.4971L85.6411 10.12V19H84.1851V7.832H85.6411L91.4971 16.696V7.832H92.9531V19ZM102.299 7.848V9.032H99.2591V19H97.8031V9.032H94.7471V7.848H102.299ZM60.768 45.112C60.032 45.112 59.3707 44.984 58.784 44.728C58.208 44.4613 57.7547 44.0987 57.424 43.64C57.0933 43.1707 56.9227 42.632 56.912 42.024H58.464C58.5173 42.5467 58.7307 42.9893 59.104 43.352C59.488 43.704 60.0427 43.88 60.768 43.88C61.4613 43.88 62.0053 43.7093 62.4 43.368C62.8053 43.016 63.008 42.568 63.008 42.024C63.008 41.5973 62.8907 41.2507 62.656 40.984C62.4213 40.7173 62.128 40.5147 61.776 40.376C61.424 40.2373 60.9493 40.088 60.352 39.928C59.616 39.736 59.024 39.544 58.576 39.352C58.1387 39.16 57.76 38.8613 57.44 38.456C57.1307 38.04 56.976 37.4853 56.976 36.792C56.976 36.184 57.1307 35.6453 57.44 35.176C57.7493 34.7067 58.1813 34.344 58.736 34.088C59.3013 33.832 59.9467 33.704 60.672 33.704C61.7173 33.704 62.5707 33.9653 63.232 34.488C63.904 35.0107 64.2827 35.704 64.368 36.568H62.768C62.7147 36.1413 62.4907 35.768 62.096 35.448C61.7013 35.1173 61.1787 34.952 60.528 34.952C59.92 34.952 59.424 35.112 59.04 35.432C58.656 35.7413 58.464 36.1787 58.464 36.744C58.464 37.1493 58.576 37.48 58.8 37.736C59.0347 37.992 59.3173 38.1893 59.648 38.328C59.9893 38.456 60.464 38.6053 61.072 38.776C61.808 38.9787 62.4 39.1813 62.848 39.384C63.296 39.576 63.68 39.88 64 40.296C64.32 40.7013 64.48 41.256 64.48 41.96C64.48 42.504 64.336 43.016 64.048 43.496C63.76 43.976 63.3333 44.3653 62.768 44.664C62.2027 44.9627 61.536 45.112 60.768 45.112ZM75.2146 33.848V45H73.7586V39.944H68.0786V45H66.6226V33.848H68.0786V38.744H73.7586V33.848H75.2146ZM82.7568 45.112C81.7221 45.112 80.7781 44.872 79.9248 44.392C79.0714 43.9013 78.3941 43.224 77.8928 42.36C77.4021 41.4853 77.1568 40.504 77.1568 39.416C77.1568 38.328 77.4021 37.352 77.8928 36.488C78.3941 35.6133 79.0714 34.936 79.9248 34.456C80.7781 33.9653 81.7221 33.72 82.7568 33.72C83.8021 33.72 84.7514 33.9653 85.6048 34.456C86.4581 34.936 87.1301 35.608 87.6208 36.472C88.1114 37.336 88.3568 38.3173 88.3568 39.416C88.3568 40.5147 88.1114 41.496 87.6208 42.36C87.1301 43.224 86.4581 43.9013 85.6048 44.392C84.7514 44.872 83.8021 45.112 82.7568 45.112ZM82.7568 43.848C83.5354 43.848 84.2341 43.6667 84.8528 43.304C85.4821 42.9413 85.9728 42.424 86.3248 41.752C86.6874 41.08 86.8688 40.3013 86.8688 39.416C86.8688 38.52 86.6874 37.7413 86.3248 37.08C85.9728 36.408 85.4874 35.8907 84.8688 35.528C84.2501 35.1653 83.5461 34.984 82.7568 34.984C81.9674 34.984 81.2634 35.1653 80.6448 35.528C80.0261 35.8907 79.5354 36.408 79.1728 37.08C78.8208 37.7413 78.6448 38.52 78.6448 39.416C78.6448 40.3013 78.8208 41.08 79.1728 41.752C79.5354 42.424 80.0261 42.9413 80.6448 43.304C81.2741 43.6667 81.9781 43.848 82.7568 43.848ZM97.7349 37.112C97.7349 38.04 97.4149 38.8133 96.7749 39.432C96.1455 40.04 95.1802 40.344 93.8789 40.344H91.7349V45H90.2789V33.848H93.8789C95.1375 33.848 96.0922 34.152 96.7429 34.76C97.4042 35.368 97.7349 36.152 97.7349 37.112ZM93.8789 39.144C94.6895 39.144 95.2869 38.968 95.6709 38.616C96.0549 38.264 96.2469 37.7627 96.2469 37.112C96.2469 35.736 95.4575 35.048 93.8789 35.048H91.7349V39.144H93.8789Z" fill="#F1ACEE"/>
</svg>
